<?xml version="1.0" standalone="no"?>
<!DOCTYPE svg PUBLIC "-//W3C//DTD SVG 20010904//EN"
 "http://www.w3.org/TR/2001/REC-SVG-20010904/DTD/svg10.dtd">
<svg version="1.0" xmlns="http://www.w3.org/2000/svg"
 width="1024.000000pt" height="1024.000000pt" viewBox="0 0 1024.000000 1024.000000"
 preserveAspectRatio="xMidYMid meet">
<metadata>
Created by potrace 1.14, written by Peter Selinger 2001-2017
</metadata>
<g transform="translate(0.000000,1024.000000) scale(0.100000,-0.100000)"
fill="#000000" stroke="none">
<path d="M958 10224 c-232 -36 -452 -149 -623 -319 -128 -128 -218 -274 -275
-443 -64 -193 -60 128 -60 -4337 0 -4455 -4 -4156 60 -4345 54 -162 141 -306
257 -425 l68 -70 5 3995 5 3995 27 51 c36 68 108 130 171 149 44 13 214 15
1247 15 1345 0 1259 5 1348 -75 65 -58 93 -124 100 -232 l5 -83 36 -10 c476
-128 1874 -513 1896 -522 48 -19 116 -89 141 -143 37 -78 32 -147 -22 -343
-25 -90 -42 -168 -37 -172 4 -4 332 -189 728 -411 396 -221 739 -417 762 -436
97 -78 125 -221 65 -344 -16 -35 -743 -1335 -1615 -2889 l-1585 -2825 2777 -3
c3012 -2 2842 -5 3011 50 347 113 625 391 738 738 55 171 52 -119 52 4309 0
4473 4 4172 -60 4361 -57 171 -147 316 -275 445 -129 128 -274 218 -445 275
-190 64 112 60 -4350 59 -3370 -1 -4080 -3 -4152 -15z m7084 -704 c499 -86
916 -440 1087 -922 73 -208 96 -492 58 -705 -64 -353 -262 -675 -546 -889
-164 -123 -397 -222 -610 -259 -109 -19 -350 -19 -469 0 -505 82 -936 451
-1100 942 -53 157 -67 248 -67 448 0 202 12 276 71 455 168 503 623 874 1159
943 94 12 311 6 417 -13z"/>
<path d="M945 8018 c-52 -18 -96 -59 -121 -112 l-24 -51 0 -780 c0 -540 4
-792 11 -820 17 -62 91 -130 157 -144 74 -16 1670 -16 1744 0 67 15 140 82
157 146 8 30 11 268 9 831 l-3 789 -30 49 c-23 37 -44 56 -84 77 l-55 27 -865
-1 c-576 0 -876 -4 -896 -11z"/>
<path d="M3290 6626 c0 -939 1 -995 18 -1000 9 -3 224 -61 478 -130 458 -125
521 -138 581 -115 45 16 101 78 118 128 54 167 405 1482 405 1520 0 57 -32
124 -76 157 -27 21 -191 69 -776 230 -409 112 -744 204 -745 204 -2 0 -3 -447
-3 -994z"/>
<path d="M5167 6443 c-17 -30 -518 -1896 -511 -1903 25 -23 657 -370 693 -380
89 -24 180 18 234 107 19 32 196 345 393 697 324 579 358 644 362 693 6 67
-17 132 -61 170 -28 25 -1085 623 -1100 623 -3 0 -8 -3 -10 -7z"/>
<path d="M962 5690 c-59 -14 -112 -57 -138 -113 l-24 -52 0 -795 c0 -753 1
-797 19 -835 10 -22 31 -52 47 -67 65 -61 22 -58 976 -58 828 0 875 1 913 19
22 10 52 31 67 47 60 65 58 29 58 898 l0 794 -28 53 c-20 39 -41 62 -77 84
l-48 30 -866 2 c-476 0 -881 -2 -899 -7z"/>
<path d="M3282 4204 l3 -997 175 -48 c96 -27 193 -48 215 -48 65 -1 140 42
180 102 21 33 425 1518 425 1563 -1 54 -29 112 -76 154 -37 34 -64 42 -469
153 -237 64 -436 117 -443 117 -9 0 -12 -211 -10 -996z"/>
<path d="M4291 3238 c-135 -491 -252 -920 -261 -954 l-17 -60 86 -50 c81 -46
90 -49 156 -49 77 0 128 23 163 73 11 15 188 329 395 698 256 457 378 684 383
712 9 56 -11 123 -50 167 -20 23 -128 89 -310 191 -154 86 -285 158 -291 160
-6 3 -105 -342 -254 -888z"/>
<path d="M925 3341 c-22 -10 -52 -31 -67 -47 -60 -65 -58 -30 -58 -892 0 -577
3 -798 12 -823 17 -51 48 -88 98 -117 l45 -27 886 0 886 0 48 30 c36 22 57 45
77 84 l28 53 0 785 c0 560 -3 797 -11 824 -16 52 -61 103 -112 128 -43 21 -51
21 -918 21 -829 0 -876 -1 -914 -19z"/>
<path d="M3280 1943 c0 -460 2 -834 4 -832 4 4 325 1169 370 1343 26 100 -11
198 -92 243 -34 20 -240 83 -269 83 -10 0 -13 -174 -13 -837z"/>
<path d="M3897 1803 c-8 -13 -288 -1045 -285 -1048 2 -2 101 172 221 386 233
417 244 443 217 524 -14 43 -71 110 -111 131 -32 16 -36 17 -42 7z"/>
</g>
</svg>
